<svg width="256" height="256" xmlns="http://www.w3.org/2000/svg">

 <g>
  <title>Layer 1</title>
  <path stroke-width="6" d="m87.42994,204.96972c0,-1.84579 -1.14618,-5.51965 -2.04203,-11.07467c-1.18738,-7.36275 -1.021,-16.61199 -1.021,-24.91798c0,-8.30599 3.39199,-15.16636 8.16807,-21.22643c6.29732,-7.99029 15.72902,-15.76546 22.46223,-18.45777c7.69972,-3.07879 16.27282,-3.22853 22.46223,-3.69155c7.12271,-0.53284 14.29414,1.84577 19.39919,5.53732c5.10505,3.69156 10.79941,12.67733 14.29414,20.30355c3.70672,8.08883 4.33436,13.80799 6.12607,24.91798c1.18738,7.36277 1.02099,11.99757 1.02099,11.99757c0,0.92287 0,1.84576 0,2.76866c0,0.92289 0,0.92289 0,1.84576c0,0.92289 0.13325,0.32866 -0.01237,1.98987l0.14409,3.54746" id="svg_6" stroke="#000" fill="none"/>
  <path stroke-width="6" d="m76.48487,73.41126c-0.60606,0 -1.50682,0.49924 -1.81818,1.81818c-0.27849,1.1797 -0.46386,3.72864 0,4.84849c0.656,1.58372 2.31743,2.11288 3.63637,2.42424c0.58984,0.13924 2.43787,0.22215 4.24242,0c2.48013,-0.30531 3.35787,-1.24454 3.63636,-2.42424c0.31136,-1.31894 1.21213,-1.81818 1.21213,-3.63637c0,-1.21212 -0.71097,-2.33498 -1.21213,-3.0303c-0.79239,-1.09939 -1.32485,-1.63184 -2.42424,-2.42424c-0.69531,-0.50115 -1.81818,-1.21212 -2.42424,-1.81818c0,0 -1.21212,0 -2.42425,0c-1.21212,0 -1.81818,0 -2.42424,0.60606l0,0.60606l0,0.60606l0,0.60606" id="svg_11" stroke="#000" fill="none"/>
  <path stroke-width="6" d="m171.6364,77.09092c0,0 -0.60606,1.21212 -0.60606,2.42424c0,1.21212 0.09227,1.96039 1.21211,2.42424c0.79185,0.328 1.81819,1.21212 2.42426,1.21212c0.60605,0 1.81818,0 2.42424,0c1.21211,0 1.8643,0.23193 2.42424,0c0.79185,-0.328 1.81818,-1.81818 1.81818,-2.42424c0,-1.21212 -0.46387,-1.91045 0,-3.0303c0.328,-0.79185 0.60606,-1.21212 0.60606,-2.42424c0,-0.60606 -0.60606,-2.42424 -1.21211,-3.0303c0,0 -0.17752,-0.17751 -0.60606,-0.60606c-0.42856,-0.42855 -0.60606,-0.60606 -0.60606,-0.60606c-1.21213,0 -2.42424,0 -3.0303,0c-1.81818,0 -2.51651,0.1422 -3.63637,0.60606c-0.79185,0.328 -0.41972,0.71879 -1.21211,1.81818c-0.50116,0.69532 -1.21213,1.21212 -1.21213,3.63637c0,0.60606 0,1.21212 0.60606,1.21212l0,0.60606" id="svg_16" stroke="#000" fill="none"/>
 </g>
</svg>